<?xml version="1.0" encoding="UTF-8"?>
<!DOCTYPE svg PUBLIC "-//W3C//DTD SVG 1.1//EN" "http://www.w3.org/Graphics/SVG/1.1/DTD/svg11.dtd">
<svg xmlns="http://www.w3.org/2000/svg" version="1.1" width="398px" height="107px" style="shape-rendering:geometricPrecision; text-rendering:geometricPrecision; image-rendering:optimizeQuality; fill-rule:evenodd; clip-rule:evenodd" xmlns:xlink="http://www.w3.org/1999/xlink">
<g><path style="opacity:1" fill="#000000" d="M -0.5,-0.5 C 132.167,-0.5 264.833,-0.5 397.5,-0.5C 397.5,35.1667 397.5,70.8333 397.5,106.5C 264.833,106.5 132.167,106.5 -0.5,106.5C -0.5,70.8333 -0.5,35.1667 -0.5,-0.5 Z"/></g>
<g><path style="opacity:1" fill="#f8f8f8" d="M 42.5,64.5 C 49.9818,63.508 57.6484,63.1746 65.5,63.5C 69.6661,66.9355 74.3328,67.4355 79.5,65C 80.3567,64.3109 81.0233,63.4776 81.5,62.5C 71.8535,61.0254 62.1868,59.5254 52.5,58C 42.1026,54.711 39.2693,48.211 44,38.5C 48.6874,31.7345 55.1874,27.9012 63.5,27C 75.0702,25.2492 86.0702,26.9159 96.5,32C 100.288,35.0823 102.954,38.9156 104.5,43.5C 96.5,44.8333 88.5,44.8333 80.5,43.5C 76.4959,40.2377 72.1626,39.7377 67.5,42C 65.9632,43.1096 65.2965,44.6096 65.5,46.5C 77.2584,45.9531 88.5917,47.7865 99.5,52C 104.809,56.1089 105.976,61.2756 103,67.5C 98.7876,75.0343 92.2876,79.201 83.5,80C 76.1667,80.6667 68.8333,80.6667 61.5,80C 51.9787,78.6376 45.6454,73.4709 42.5,64.5 Z"/></g>
<g><path style="opacity:1" fill="#f9f9f9" d="M 138.5,26.5 C 151.209,24.9624 163.209,27.129 174.5,33C 185.172,42.8001 187.338,54.3001 181,67.5C 175.636,74.6039 168.47,78.7706 159.5,80C 151.5,80.6667 143.5,80.6667 135.5,80C 116.473,75.4418 108.973,63.6084 113,44.5C 114.676,39.8222 117.509,35.9889 121.5,33C 126.888,29.7516 132.554,27.5849 138.5,26.5 Z"/></g>
<g><path style="opacity:1" fill="#b8b8b8" d="M 253.5,40.5 C 253.5,36.5 253.5,32.5 253.5,28.5C 234.167,28.5 214.833,28.5 195.5,28.5C 195.5,45.5 195.5,62.5 195.5,79.5C 194.503,62.3414 194.17,45.008 194.5,27.5C 214.5,27.5 234.5,27.5 254.5,27.5C 254.818,32.0323 254.485,36.3656 253.5,40.5 Z"/></g>
<g><path style="opacity:1" fill="#fdfdfd" d="M 253.5,40.5 C 241.167,40.5 228.833,40.5 216.5,40.5C 216.5,43.1667 216.5,45.8333 216.5,48.5C 227.167,48.5 237.833,48.5 248.5,48.5C 248.5,51.8333 248.5,55.1667 248.5,58.5C 237.833,58.5 227.167,58.5 216.5,58.5C 216.5,65.5 216.5,72.5 216.5,79.5C 209.5,79.5 202.5,79.5 195.5,79.5C 195.5,62.5 195.5,45.5 195.5,28.5C 214.833,28.5 234.167,28.5 253.5,28.5C 253.5,32.5 253.5,36.5 253.5,40.5 Z"/></g>
<g><path style="opacity:1" fill="#f9f9f9" d="M 292.5,27.5 C 299.175,27.3337 305.842,27.5004 312.5,28C 323.5,45 334.5,62 345.5,79C 338.167,79.6667 330.833,79.6667 323.5,79C 321.968,76.9656 320.635,74.7989 319.5,72.5C 308.167,71.1667 296.833,71.1667 285.5,72.5C 284.041,74.583 282.708,76.7497 281.5,79C 274.167,79.6667 266.833,79.6667 259.5,79C 270.635,61.8899 281.635,44.7232 292.5,27.5 Z"/></g>
<g><path style="opacity:1" fill="#060606" d="M 142.5,40.5 C 158.927,39.0733 164.76,46.0733 160,61.5C 155.428,66.0202 149.928,67.5202 143.5,66C 135.581,63.337 132.414,57.837 134,49.5C 135.688,45.3148 138.521,42.3148 142.5,40.5 Z"/></g>
<g><path style="opacity:1" fill="#131313" d="M 301.5,43.5 C 302.376,43.3691 303.043,43.7025 303.5,44.5C 306.041,49.0825 308.707,53.5825 311.5,58C 305.5,58.6667 299.5,58.6667 293.5,58C 296.572,53.3534 299.238,48.5201 301.5,43.5 Z"/></g>
<g><path style="opacity:1" fill="#737373" d="M 65.5,63.5 C 57.6484,63.1746 49.9818,63.508 42.5,64.5C 41.9569,64.44 41.6236,64.1067 41.5,63.5C 49.6572,62.1796 57.6572,62.1796 65.5,63.5 Z"/></g>
</svg>
