<?xml version="1.0" encoding="UTF-8"?>
<!DOCTYPE svg PUBLIC "-//W3C//DTD SVG 1.1//EN" "http://www.w3.org/Graphics/SVG/1.1/DTD/svg11.dtd">
<svg xmlns="http://www.w3.org/2000/svg" version="1.1" width="500px" height="500px" style="shape-rendering:geometricPrecision; text-rendering:geometricPrecision; image-rendering:optimizeQuality; fill-rule:evenodd; clip-rule:evenodd" xmlns:xlink="http://www.w3.org/1999/xlink">
<g><path style="opacity:1" fill="#000000" d="M -0.5,-0.5 C 166.167,-0.5 332.833,-0.5 499.5,-0.5C 499.5,166.167 499.5,332.833 499.5,499.5C 332.833,499.5 166.167,499.5 -0.5,499.5C -0.5,332.833 -0.5,166.167 -0.5,-0.5 Z"/></g>
<g><path style="opacity:1" fill="#f8f8f8" d="M 99.5,257.5 C 106.982,256.508 114.648,256.175 122.5,256.5C 126.666,259.936 131.333,260.436 136.5,258C 137.357,257.311 138.023,256.478 138.5,255.5C 128.853,254.025 119.187,252.525 109.5,251C 99.1026,247.711 96.2693,241.211 101,231.5C 105.687,224.735 112.187,220.901 120.5,220C 132.07,218.249 143.07,219.916 153.5,225C 157.288,228.082 159.954,231.916 161.5,236.5C 153.521,237.665 145.521,237.832 137.5,237C 133.673,233.263 129.34,232.596 124.5,235C 122.963,236.11 122.297,237.61 122.5,239.5C 134.258,238.953 145.592,240.786 156.5,245C 161.809,249.109 162.976,254.276 160,260.5C 156.034,267.746 149.868,271.913 141.5,273C 133.833,273.667 126.167,273.667 118.5,273C 108.979,271.638 102.645,266.471 99.5,257.5 Z"/></g>
<g><path style="opacity:1" fill="#fafafa" d="M 195.5,219.5 C 208.209,217.962 220.209,220.129 231.5,226C 242.172,235.8 244.338,247.3 238,260.5C 232.652,267.597 225.486,271.764 216.5,273C 208.5,273.667 200.5,273.667 192.5,273C 173.481,268.46 165.981,256.627 170,237.5C 171.676,232.822 174.509,228.989 178.5,226C 183.888,222.752 189.554,220.585 195.5,219.5 Z"/></g>
<g><path style="opacity:1" fill="#bebebe" d="M 310.5,233.5 C 310.5,229.5 310.5,225.5 310.5,221.5C 291.167,221.5 271.833,221.5 252.5,221.5C 252.5,238.5 252.5,255.5 252.5,272.5C 251.503,255.341 251.17,238.008 251.5,220.5C 271.5,220.5 291.5,220.5 311.5,220.5C 311.818,225.032 311.485,229.366 310.5,233.5 Z"/></g>
<g><path style="opacity:1" fill="#fdfdfd" d="M 310.5,233.5 C 298.167,233.5 285.833,233.5 273.5,233.5C 273.5,236.167 273.5,238.833 273.5,241.5C 284.167,241.5 294.833,241.5 305.5,241.5C 305.5,244.833 305.5,248.167 305.5,251.5C 294.833,251.5 284.167,251.5 273.5,251.5C 273.5,258.5 273.5,265.5 273.5,272.5C 266.5,272.5 259.5,272.5 252.5,272.5C 252.5,255.5 252.5,238.5 252.5,221.5C 271.833,221.5 291.167,221.5 310.5,221.5C 310.5,225.5 310.5,229.5 310.5,233.5 Z"/></g>
<g><path style="opacity:1" fill="#fafafa" d="M 349.5,220.5 C 356.175,220.334 362.842,220.5 369.5,221C 380.5,238 391.5,255 402.5,272C 395.167,272.667 387.833,272.667 380.5,272C 378.968,269.966 377.635,267.799 376.5,265.5C 365.167,264.167 353.833,264.167 342.5,265.5C 341.041,267.583 339.708,269.75 338.5,272C 331.167,272.667 323.833,272.667 316.5,272C 327.635,254.89 338.635,237.723 349.5,220.5 Z"/></g>
<g><path style="opacity:1" fill="#060606" d="M 199.5,233.5 C 214.534,231.695 220.701,238.029 218,252.5C 216.332,256.165 213.499,258.332 209.5,259C 196.345,261.174 190.179,255.674 191,242.5C 192.688,238.315 195.521,235.315 199.5,233.5 Z"/></g>
<g><path style="opacity:1" fill="#0a0a0a" d="M 367.5,250.5 C 361.974,250.821 356.64,250.488 351.5,249.5C 353.905,245.027 356.571,240.694 359.5,236.5C 362.696,240.896 365.363,245.563 367.5,250.5 Z"/></g>
<g><path style="opacity:1" fill="#575757" d="M 351.5,249.5 C 356.64,250.488 361.974,250.821 367.5,250.5C 365.604,251.218 362.938,251.551 359.5,251.5C 356.5,251.167 353.5,250.833 350.5,250.5C 350.624,249.893 350.957,249.56 351.5,249.5 Z"/></g>
<g><path style="opacity:1" fill="#767676" d="M 122.5,256.5 C 114.648,256.175 106.982,256.508 99.5,257.5C 98.9569,257.44 98.6236,257.107 98.5,256.5C 106.657,255.18 114.657,255.18 122.5,256.5 Z"/></g>
</svg>
